<?xml version="1.0" encoding="UTF-8"?>
<!-- Created with Inkscape (http://www.inkscape.org/) -->
<svg width="116.48mm" height="89.615mm" version="1.1" viewBox="0 0 116.48 89.615" xml:space="preserve" xmlns="http://www.w3.org/2000/svg"><g transform="translate(-20.058 -2.3922)" stroke-width=".265"><path d="m103.78 38.275 19.874 4.9684 12.881 21.53-11.409 21.162-20.242 6.0725-40.851-0.73606-24.842-8.0967-19.138 4.4164 6.6245-12.145v-20.058l-6.4405-13.249 19.138 5.1524 26.682-8.2807 2.5762-13.617 15.273-4.0483 1.4721-11.777 8.2807-7.1766h7.9126l-0.55205 4.6004-6.6245 0.36803-4.4164 3.6803-0.18402 10.489 13.433 4.6004z" fill="#df206e"/><path d="m39.195 83.175-19.138 4.4164 6.6245-12.145v-20.058l-6.4405-13.249 19.138 5.1524-5.7505 7.6826 0.32202 20.38z" fill="#b71a5a"/><path d="m103.78 38.275-37.723 0.73606 2.5762-13.617 15.273-4.0483 1.4721-11.777 8.2807-7.1766h7.9126l-0.55205 4.6004-6.6245 0.36803-4.4164 3.6803-0.18402 10.489 13.433 4.6004z" fill="#b71a5a"/></g></svg>
